<?xml version="1.0" standalone="no"?>
<!DOCTYPE svg PUBLIC "-//W3C//DTD SVG 20010904//EN"
 "http://www.w3.org/TR/2001/REC-SVG-20010904/DTD/svg10.dtd">
<svg version="1.0" xmlns="http://www.w3.org/2000/svg"
 width="400.000000pt" height="400.000000pt" viewBox="0 0 400.000000 400.000000"
 preserveAspectRatio="xMidYMid meet">
<metadata>
Created by potrace 1.14, written by Peter Selinger 2001-2017
</metadata>
<g transform="translate(0.000000,400.000000) scale(0.100000,-0.100000)"
fill="#000000" stroke="none">
<path d="M1870 3667 c-3 -3 -30 -7 -60 -11 -99 -10 -268 -68 -380 -129 -99
-54 -161 -99 -247 -180 -208 -197 -340 -448 -388 -737 -17 -105 -13 -336 9
-436 48 -222 119 -343 442 -749 249 -314 463 -620 654 -933 50 -84 95 -152 99
-152 4 0 14 12 22 28 7 15 55 96 107 180 150 248 257 401 566 811 11 14 63 80
116 146 198 248 268 355 327 495 41 97 53 143 67 267 10 95 7 254 -9 358 -8
59 -53 218 -76 272 -101 237 -264 442 -451 566 -149 99 -328 170 -493 196 -62
9 -297 15 -305 8z m315 -308 c367 -84 648 -378 706 -738 13 -85 10 -245 -7
-324 -93 -439 -478 -740 -924 -721 -394 17 -723 283 -831 670 -31 112 -35 298
-9 416 46 211 149 376 319 515 65 54 212 139 253 147 7 2 24 8 38 13 25 10
137 31 195 36 62 5 212 -3 260 -14z"/>
<path d="M1511 3006 c-19 -23 -24 -102 -11 -157 19 -79 96 -202 176 -284 79
-80 198 -149 274 -160 76 -10 94 -23 160 -113 129 -178 176 -236 225 -284 51
-50 107 -74 141 -61 23 8 54 42 54 57 0 25 -47 76 -251 277 -118 115 -331 326
-474 468 -143 141 -265 260 -271 264 -7 4 -17 1 -23 -7z"/>
<path d="M2306 2988 c-16 -13 -43 -36 -60 -53 -17 -16 -34 -30 -38 -30 -14 0
-92 -81 -120 -124 -19 -30 -28 -58 -28 -86 0 -22 -4 -54 -9 -72 -8 -28 -5 -34
29 -68 l37 -37 72 7 c94 9 133 26 190 83 122 124 193 231 147 220 -17 -3 -186
-166 -186 -179 0 -4 -9 -10 -20 -14 -21 -7 -40 0 -40 14 0 4 47 54 103 110 57
57 104 109 104 117 0 31 -36 11 -100 -55 -37 -39 -67 -68 -67 -66 0 3 -15 -12
-33 -32 -23 -25 -39 -34 -50 -30 -10 4 -17 11 -17 16 0 6 48 57 106 115 96 95
116 126 80 126 -7 0 -50 -38 -95 -85 -45 -47 -86 -85 -92 -85 -5 0 -9 -7 -9
-15 0 -19 -39 -20 -46 -1 -3 8 37 55 100 117 58 57 106 110 106 117 0 19 -33
14 -64 -10z"/>
<path d="M1796 2365 c-98 -75 -245 -216 -294 -284 -42 -57 -43 -100 -4 -123
35 -21 64 -15 117 25 46 35 193 182 247 247 97 118 91 108 74 126 -10 10 -16
11 -16 3 0 -9 -4 -8 -15 1 -8 7 -15 9 -15 4 0 -4 -5 -3 -12 4 -16 16 -59 15
-82 -3z"/>
</g>
</svg>
